<mxfile host="app.diagrams.net" modified="2020-06-27T08:27:56.873Z" agent="5.0 (Windows NT 10.0; Win64; x64) AppleWebKit/537.36 (KHTML, like Gecko) Chrome/83.0.4103.106 Safari/537.36" etag="ok8q_VHMa5orfUXUzCiW" version="13.3.5" type="github">
  <diagram id="v_nm-iI1iw3nm3EBjDdS" name="Page-1">
    <mxGraphModel dx="1158" dy="1163" grid="1" gridSize="10" guides="1" tooltips="1" connect="1" arrows="1" fold="1" page="1" pageScale="1" pageWidth="2339" pageHeight="3300" math="0" shadow="0">
      <root>
        <mxCell id="0" />
        <mxCell id="1" parent="0" />
        <mxCell id="ToYlqIT4brocJAcpIdB3-1" value="日志生产者" style="rounded=1;whiteSpace=wrap;html=1;" vertex="1" parent="1">
          <mxGeometry x="90" y="300" width="120" height="60" as="geometry" />
        </mxCell>
        <mxCell id="ToYlqIT4brocJAcpIdB3-2" value="日志主题" style="rounded=0;whiteSpace=wrap;html=1;opacity=90;align=left;" vertex="1" parent="1">
          <mxGeometry x="230" y="210" width="420" height="440" as="geometry" />
        </mxCell>
        <mxCell id="ToYlqIT4brocJAcpIdB3-3" value="Partition_0" style="rounded=1;whiteSpace=wrap;html=1;opacity=90;" vertex="1" parent="1">
          <mxGeometry x="320" y="220" width="310" height="60" as="geometry" />
        </mxCell>
        <mxCell id="ToYlqIT4brocJAcpIdB3-4" value="Partition_1" style="rounded=1;whiteSpace=wrap;html=1;opacity=90;" vertex="1" parent="1">
          <mxGeometry x="320" y="290" width="310" height="60" as="geometry" />
        </mxCell>
        <mxCell id="ToYlqIT4brocJAcpIdB3-5" value="Partition_2" style="rounded=1;whiteSpace=wrap;html=1;opacity=90;" vertex="1" parent="1">
          <mxGeometry x="320" y="360" width="310" height="60" as="geometry" />
        </mxCell>
        <mxCell id="ToYlqIT4brocJAcpIdB3-6" value="Partition_3" style="rounded=1;whiteSpace=wrap;html=1;opacity=90;" vertex="1" parent="1">
          <mxGeometry x="320" y="430" width="310" height="60" as="geometry" />
        </mxCell>
        <mxCell id="ToYlqIT4brocJAcpIdB3-7" value="Partition_4" style="rounded=1;whiteSpace=wrap;html=1;opacity=90;" vertex="1" parent="1">
          <mxGeometry x="320" y="500" width="310" height="60" as="geometry" />
        </mxCell>
        <mxCell id="ToYlqIT4brocJAcpIdB3-10" value="Partition_5" style="rounded=1;whiteSpace=wrap;html=1;opacity=90;" vertex="1" parent="1">
          <mxGeometry x="320" y="570" width="310" height="60" as="geometry" />
        </mxCell>
        <mxCell id="ToYlqIT4brocJAcpIdB3-13" value="消费者1" style="rounded=1;whiteSpace=wrap;html=1;" vertex="1" parent="1">
          <mxGeometry x="870" y="270" width="120" height="60" as="geometry" />
        </mxCell>
        <mxCell id="ToYlqIT4brocJAcpIdB3-14" value="消费者2" style="rounded=1;whiteSpace=wrap;html=1;" vertex="1" parent="1">
          <mxGeometry x="870" y="370" width="120" height="60" as="geometry" />
        </mxCell>
      </root>
    </mxGraphModel>
  </diagram>
</mxfile>
